<svg width="24" height="24" viewBox="0 0 24 24" fill="none" xmlns="http://www.w3.org/2000/svg">
<path fill-rule="evenodd" clip-rule="evenodd" d="M12 3.75C7.44365 3.75 3.75 7.44365 3.75 12C3.75 16.5563 7.44365 20.25 12 20.25C16.5563 20.25 20.25 16.5563 20.25 12C20.25 7.44365 16.5563 3.75 12 3.75ZM2.25 12C2.25 6.61522 6.61522 2.25 12 2.25C17.3848 2.25 21.75 6.61522 21.75 12C21.75 17.3848 17.3848 21.75 12 21.75C6.61522 21.75 2.25 17.3848 2.25 12Z" fill="black"/>
<path fill-rule="evenodd" clip-rule="evenodd" d="M14.2515 7.5H15.75C16.1642 7.5 16.5 7.83579 16.5 8.25C16.5 8.66421 16.1642 9 15.75 9H14.2469C14.0501 8.99917 13.855 9.03732 13.6731 9.11225C13.4911 9.18719 13.3257 9.29741 13.1866 9.43657C13.0474 9.57574 12.9372 9.74108 12.8623 9.92306C12.7873 10.105 12.7492 10.3001 12.75 10.4969L12.75 10.5L12.75 21C12.75 21.4142 12.4142 21.75 12 21.75C11.5858 21.75 11.25 21.4142 11.25 21V10.5015" fill="black"/>
<path fill-rule="evenodd" clip-rule="evenodd" d="M8.25 13.5C8.25 13.0858 8.58579 12.75 9 12.75H15C15.4142 12.75 15.75 13.0858 15.75 13.5C15.75 13.9142 15.4142 14.25 15 14.25H9C8.58579 14.25 8.25 13.9142 8.25 13.5Z" fill="black"/>
</svg>
